<?xml version="1.0" encoding="utf-8"?>
<!-- Generator: Adobe Illustrator 12.0.1, SVG Export Plug-In . SVG Version: 6.00 Build 51448)  -->
<!DOCTYPE svg PUBLIC "-//W3C//DTD SVG 1.1//EN" "http://www.w3.org/Graphics/SVG/1.1/DTD/svg11.dtd" [
	<!ENTITY ns_svg "http://www.w3.org/2000/svg">
	<!ENTITY ns_xlink "http://www.w3.org/1999/xlink">
	<!ENTITY st0 "fill-rule:evenodd;clip-rule:evenodd;">
	<!ENTITY st1 "fill:#FFFFFF;">
]>
<svg  version="1.1" id="Layer_1" xmlns="&ns_svg;" xmlns:xlink="&ns_xlink;" width="476.2" height="651.2"
	 viewBox="0 0 476.2 651.2" style="overflow:visible;enable-background:new 0 0 476.2 651.2;" xml:space="preserve">
<g>
	<rect style="&st1;" width="476.2" height="651.2"/>
	<g>
		<path style="&st0;" d="M130.5,183.6c-1.1,16.5-22.6,13.8-29,1c-0.3-7.6,0.2-14.9-2-21c-2.7-7.4-10.1-22.5-11-31
			c-0.2-2.1,1.4-4.9,1-7c-2.3-12.6-17.1-21.5-15-34c2-3.3,7.8,6,10,9c2.8-4.2-1.6-9.7-2-14c9.5,2.2,19.5,12.5,26,21
			c13.1-13.5,31.3-19,47-28c12.8-0.1,23.6-5.1,35-3c5.3,1,9.8,4.8,15,6c10.1,2.4,25.3,0.5,44,2c22,1.8,39.3,0.4,57-3
			c11.5-2.2,31,3.6,38,10c8.4,7.7,17.1,14.8,23,23c6.3,8.7,6.7,28.3,16,37c4.2,3.9,13.7,2.7,17,10c3.2,7.1-1.8,18.5,0,27
			c-16.9-13.1-25.6-35.2-34-56c-3.5-8.6-10.2-15-18-19c2.9,19.9-18.7,47.6,5,59c-1,13.3-12.8,22.2-14,36c-0.8,8.8,4.7,20-6,25
			c-8.3-1.3-5.2-10-6-15c-0.7-4.5-3.2-5.5-3-8c0.8-10.1,13.4-19,12-31c-2.9-4.8-7.3-8.1-12-11c-1,5.7,3.5,5.9,4,10
			c-3.2,13.4-15.2,18.1-18,32c-1.3,3.3-5,4.3-6,8c0.6,2.1,1.9,3.4,4,4c-4.2,7.2-3.9,18.8-17,17c-4.5-12.3,5.5-18.1,1-30
			c5.4-8.6,13.6-14.4,17-25c-2.5-15.5-17.9-18-20-34c-18.5,4.1-40.8,6.5-63,4c-8.3,9.3-15.9,19.5-25,28c-3.4,14,9.4,27.4,12,38
			c8.1,0.5,12.3,15.8,5,23c-11.4-2-10.3-16.4-21-19c0.6-17.2-17.3-34.1-8-51c-19.3,5.8-14.9,24.7-13,43c-0.5,3.9,4.3,2.3,5,5
			c0,9.6-3.2,16.2-11,18c-3.3-2.7-6.4-9.9-4-15c-8.5-13.8-1.3-22-5-43c8.8-6.6,10.9-19.8,17-29c-2.5-4.5-5.6-8.4-6-15
			c-3,1.3-6.8,1.9-10,3C155.6,158.7,153.5,181.6,130.5,183.6z M141.5,174.6c-2.2,2.1-2.1,3.8,1,5
			C144.1,178.1,143.3,175.5,141.5,174.6z M218.5,86c2.7,17,6.6,48.5,7.8,67c21.2,2.8,44.7,0.7,59.8-3.2
			c-12.2-29.3-10-45.8-19.7-62.5C252.5,86.8,233.5,85.3,218.5,86z M129.5,179.6c15.6-2.6,23.5-19.3,28-38
			C138.7,136.6,132,165.1,129.5,179.6z"/>
		<path style="&st0;" d="M310.5,461.6c11.2-11,29.3,1,44,4c2.2,0.4,4.8-1.3,7-1c8.1,1,13.6,9.6,22,7c10.9,13.1,34,14,38,34
			c-4.6-1-11.6-5.7-22-4c2.9,9.5,15.8,17.1,13,26c-9.4-3-13.5-11.2-23-14c-3.8,6.2-6.5,13.5-8,22c-5.6,6.8-11.8,12.9-16,21
			c-10.8,4.3-17.9,15.2-31,18c-18.7,4-42-2.9-60-5c-18.3-2.2-34.4-1.4-52-1c-10.2,0.2-20.2,0.1-29,2c-10.4,2.3-23.4,8.2-38,4
			c-4.5-1.3-11.8-6-17-9c-22.3-12.5-34.4-31.5-48-53c-8.6-2-15.6-5.7-23-9c-1.9-7.8-7.6-14.1-4-22c12.2,9.5,26.4,14.8,36,27
			c5.4,6.9,7.5,15.8,13,23c6.5,8.5,14.6,16.4,26,21c-5.4-14.4-4.8-27.1-5-49c-3.9-8.8-14.3-11-20-18c2.8-8.8,10.2-18.5,6-31
			c1.2-1.8,2.6-3.4,4-5c-7.4-4.1-7.3-18.4-1-24c12.4-0.7,10,18.9,15,27c-6.8,16.1-11.8,32.7,9,37c2.6-4.3-6.9-5.1-6-11
			c4.8-13.5,17.6-19.1,20-35c2-1,3.5-2.5,5-4c-6.4-8.4-0.8-20,7-23c17.4,20.3-3.2,39.1-11,58c13.4,8.9,29.6,15,37,30
			c22.6-6.2,47-7.7,67-2c6.2-7.5,5.7-21.6,13-28c-4.9-10.4-11.1-19.5-25-21c-0.4-1.9-2.9-1.8-2-5c-8.1,7.7-20.2-6.1-17-16
			c14.1-6.2,21.7,7.1,32,9c4.5,12.5,19.4,14.6,27,24c3.6-11.7-1.1-23.5-8-28c-0.9-3.2,1.6-3.1,2-5c-22.4-2.8-0.5-44.4,5-11
			c2.2,1.8,4.9,3.1,7,5C299.5,441.6,307.6,452.8,310.5,461.6z M313.5,480.6c-2.9-0.7-4.3-3-6-5c2.6,9.2-7.6,17.9,1,21
			c-1.4-6.8,4.3-6.4,5-11c-3.1-1.1-2.4,1.6-4,2C309.5,484,312.4,483.1,313.5,480.6z M318.5,482.6c-5.2,2.5-2.1,13.2-4,19
			c5.1,1.6,7.4,14.8,14,16c4,0.7,12.7-2.4,12-11C329.2,502.6,328.9,487.6,318.5,482.6z M199.7,506.1c5,8.2,7.2,19.5,9.8,30.6
			c2.1,8.9,3.4,26.5,7.6,30.7c11.5-0.3,34.4-1.2,52.1,0.6c-4.8-16-12.2-44.3-8-64.9C243,498.4,214.5,500.6,199.7,506.1z"/>
		<g>
			<path style="&st0;" d="M342.5,323.6c-14.5-2.2-25.2-8.1-37-13C314.9,316.6,330.8,326.6,342.5,323.6z"/>
			<path style="&st0;" d="M352.5,322.6c0.1,2.9,0.4,5.6,4,5c-0.2-1.9,1.1-2.2,1-4C356.4,322.8,354.8,322.3,352.5,322.6z"/>
			<path style="&st0;" d="M362.5,324.6c-1.4,1.3-1.5,4.9,1,5C365.7,327.5,365.6,325.9,362.5,324.6z"/>
			<path style="&st0;" d="M367.5,325.6c-0.3,2.6,0.4,4.3,3,4C370.8,327,370.2,325.3,367.5,325.6z"/>
			<path style="&st0;" d="M374.5,328.6c0,2-2.7,1.3-2,4c2.5,0.1,3.1,1.9,5,0C377.7,330.1,376,329.5,374.5,328.6z"/>
			<path style="&st0;" d="M365.5,330.6c0,1.3,0,2.7,0,4C370.6,335.9,370.2,329.7,365.5,330.6z"/>
			<path style="&st0;" d="M331.5,333.6c3.5,1.1,7.1,2.2,9,5c-3.7-1.3-10-5.3-13-4c5.3,1.4,11.5,7.1,17,5c-0.7,0-1.3,0-2,0
				c0.1-1.6,2.6-0.8,2-3C338.6,337.9,335.8,330.7,331.5,333.6z"/>
			<path style="&st0;" d="M305.5,321.6c-3.7-0.7-4.9-3.8-8-5C297.7,320.2,303.5,323.3,305.5,321.6z"/>
			<circle style="&st0;" cx="415.9" cy="321.1" r="1.1"/>
			<path style="&st0;" d="M425.1,317.3c-1.8-3.2-1.3-6.5-3.2-7.1c-4.6,13-5,0-20.3,5.4c-1.4,1.6-0.8,5.2-3,6c-2.8-1-4.2-1-7,0
				c-10.6-11.1-34.1-9.2-34-31c-1.4,0.2-3,0.1-4.3-0.5c-0.2-0.1-0.3-0.2-0.4-0.3c-0.3-0.2-0.5-0.4-0.8-0.3c-0.3,0.1-0.6,0.3-0.9,0.4
				c-0.9,0.4-1.8,0.9-2.7,1.4c-0.3,0.1-0.5,0.3-0.8,0.4c-0.1,0.1-0.3,0.1-0.4,0.2c-0.1,0-0.3,0.2-0.4,0.2c-2.8-0.8-5.2-2-6.1-4.5
				c0.2-1.2,0.8,0.2-0.1-2.9h-80.8l-0.1,2.9c-0.4,12.4-3.9,18.1-3.1,30.4c-5.9,5-12.2-0.4-15.9,3.6c1.3,6.7,8.7,8.1,7,15
				c2.6,1.4,7.2-3,11.9-2.8c2.1,12.1,4.1,20.6,4.1,30.8l0.1,2.1l72.2,0l-0.3-2.1c-1.1-5.3-5.3-10.7-4.3-18.7
				c5.2,0.8,11.4-1.3,18.3-3.3c4.8,7.3,17.4,6.9,29,5c10.4-1.7,18.3-8.2,25-11c2.6-1.1,4.3,4.2,10.1,5.1c6.1,1,11.6-1.8,15.3-4.8
				C433.7,331.4,429.8,322,425.1,317.3z M363.5,306.6c1.3,4.2,0.1,6-4,7c-1.2-3.2,3.2-0.8,2-4c-0.3-2.4-4.4-0.6-4,1
				c-1.3-0.7-1.9-2.1-2-4C358.4,307.7,359.3,306.9,363.5,306.6z M352.6,289.8c2,3.5,10.2,11.9,3,14.8c-1.3-2.3-4.2-3.1-5-6
				c2.2-0.8,5.6-2.4,3-5c-1.5-0.4-3.1-0.6-4.7-1C350.5,291.9,352.4,290.5,352.6,289.8z M342.5,295.6c2,0,4,0,6,0
				c1.1,5.3,0.2,8.8-3,12C343.6,304.6,342.2,300.9,342.5,295.6z M335.5,291.6c1.9,0.4,2.5,2.2,5,2c0.6,10.5,0.5,16.4,2,22
				c-4.7,0.3-6.7-2-11-2C331.2,304.6,333.2,298,335.5,291.6z M320.5,321.6c-9.9-0.5-20.3-9-26-17c18.6,4,31.4,13.9,50,18
				c0.1,2.6,0.6,4.8,2,6c-13.8-0.7-22-9.4-37-12C312.2,319.2,317.1,319.7,320.5,321.6z M327.5,355.6c-15.2,3.8-25.4-5.9-43-3
				c-1.7-8.3-4.5-18.3-5.9-26.9c2.7-1.5,7.1-1.8,8.9-5.1c14.7,7,23.9,20.1,40.4,24.3C325.7,349.5,326.6,350.5,327.5,355.6z
				 M273.5,323.6c-0.5-4.2-3.8-5.5-4-10c6.3-5.7,12-0.6,13,7C279.1,321.2,277.9,324,273.5,323.6z M278.1,305.7
				c0.2-3.2,0-7.7,0.7-10.3c12.9-1.1,30.7-0.9,47.7,2.3c-1.2,6.9,0.6,8-1,14C311.2,308.3,293.2,295.8,278.1,305.7z M271.5,288.6
				c3.1-0.1,7.7,0.2,12,0c9.9-0.4,34.8-0.3,43.6-0.3c0.5,1,0.5,2.5,0.2,3c-24.3,0.4-34-0.8-52.2,0.2c-1,2.3-2.2,11.3-1,16
				c-1.8,0.8-3.5,2-4.8,2.5C268.6,306.5,269.6,295.2,271.5,288.6z M331.5,364.6c-21.3-1.3-38.4-2.8-55.2-1.8
				c-1.5-12.9-3.1-24.6-6.8-35.2c1.6-0.1,2.9,0.1,4-1c4.1,10.3,2.5,22.8,7,31c12.6-2.2,22.3,1.4,33,3
				C320.1,361.6,328.2,358,331.5,364.6z M311.5,333.6c4.5-0.5,11.4,5.2,18,6c-3.5-6.6-19.1-6.1-20-12c-9.9-0.5-13.3-7.4-19-12
				c-1,1.7-2.8,2.6-6,2c0.3-2.1,4.4-0.3,5-2c-1.5-3.7-5.2,0.8-8-2c1.5-3.4,5.3-1.3,7-1c1.1-5.1-9.1,1.1-8-4c3.2-0.5,3.5,1.8,7,1
				c-0.2-1.8-1.7-2.3-4-2c1.3-2,4.4-2.2,7-3c9.8,8.7,12.3,14,27,19c-4.7,1.4-11.1-4.2-15-7c1.7,5.9,9.5,7.9,9,13
				c1.1-0.9-0.2-3.2,3-1c0-1.7-0.7-2.6-2-3c3.9-0.9,9,5.7,15,6c-1.8-2.5-5.3-3.4-9-4c-0.2-0.9,0.4-0.9,1-1c0.2-0.9-0.4-0.9-1-1
				c6-1.6,11.1,6.2,19,6c-1.7-3-6.5-2.8-9-5c5.4-0.7,13.7,4.3,20,6C346,351.6,318.5,341.4,311.5,333.6z M374.5,338.6
				c-3,0.4-1.7-3.6-4-4c-2.4,0.3-1.9,3.5-5,3c-0.3-3.5-2.6-2.6-5-2c1.2-1.5,1.2-2.5,0-4c-3.4,0.9-0.1,2.2-2,4c-3.2,0.6-4.7-0.7-7-1
				c2.7-3.9,1.8-6-3-7c2.2-4,1-5.8,3-9c-0.9-2.9-1.5-1.1-4-1c-0.1,1.8,1.2,2.1,1,4c-4-1.9,0.4-6.8-5-8c-0.1-3.8,5-2.3,6-5
				c3.1,1-1.1,2.7-1,4c0.9,3.4,1.9,0.5,5,1c-3.8,7.1,5.3,4.7,5,11c4.4-2.8,11,2.5,12-4c2.9,1.5,2.1,7.2,7,4c0,1.3,0,2.7,0,4
				c3.1,0.7,3.6-1,6-1c-2.2,2.2-2.6,9.5,1,7C385.6,340.5,376,332.4,374.5,338.6z M417.5,326.6c-8.9,0.5-9.7,3-13,9
				c-7.7-3.6-7.7-11.5-3-18c4.4,0.4,7.3-0.7,10-2c1.8,1,6.9,3.7,8,2C422.2,320.1,418.7,324.7,417.5,326.6z"/>
		</g>
		<path style="&st0;" d="M126.5,304.6c0,1,0,2,0,3c-2.1,0.4-2.6-0.7-4-1C122.8,304.9,124.2,304.3,126.5,304.6z"/>
		<path style="&st0;" d="M132.5,305.6c2.6-0.3,4.3,0.4,4,3C133.9,308.9,131.5,309,132.5,305.6z"/>
		<path style="&st0;" d="M126.5,309.6c2.1-0.4,2.6,0.7,4,1C129.8,313.7,125.8,314.7,126.5,309.6z"/>
		<path style="&st0;" d="M136.5,309.6c0,1.3,0,2.7,0,4C132.7,314.4,132.7,308.8,136.5,309.6z"/>
		<path style="&st0;" d="M138.5,309.6c2.3,0.3,4.7,0.6,4,4C139.4,314.1,138.1,312.7,138.5,309.6z"/>
		<path style="&st0;" d="M133.5,320.6c3,0.3,6.8-0.2,7,3C136.9,322.1,134.2,325.5,133.5,320.6z"/>
		<path style="&st0;" d="M147.5,320.6c0,1.3,0,2.7,0,4c-1.9-0.4-4.3-0.4-4-3C144.4,320.8,145.8,320.5,147.5,320.6z"/>
		<path style="&st0;" d="M149.5,332.6c2.6-0.3,4.3,0.4,4,3C150.9,335.9,149.2,335.3,149.5,332.6z"/>
		<path style="&st0;" d="M147.5,315.6c-0.2-0.9,0.4-0.9,1-1c0.7,0,1.3,0,2,0c-3.2,4.1,4.2,3.3,1,7
			C148.5,321.3,150.1,316.3,147.5,315.6z"/>
		<path style="&st0;" d="M163.5,332.6c-0.7-0.7-4.9-2.5-4,1C155.6,335.1,163.5,324.8,163.5,332.6z"/>
		<g>
			<path style="&st0;" d="M223.5,341.6c-2.2-1.2-4.6,0.9-6.4-0.4c2.5-24.5-4.8-38.2-5.7-56.5H141l0.6,0.9c2.1,2.3,3.8,13.1,0,15
				c-8.4-7.4-18.3-4.5-27,1c-11.8-11.9-36.3-3.1-45,6c0.3,5.6-1.8,8.9-5,11c-2.3-1-3.5-3.1-7-3c-20.2,3.6-12.9,23.6,0,30
				c1.7-2.7-1.6-4.7,2-6c4.5-1.3,9.7,3.9,10-2c0,0,0,0,0,0c0-0.1,0-0.2,0.1-0.3c0.1-0.3,0.1-0.6,0.1-0.7c5.6-0.6,7.2-6.1,6.9-10
				c11.3,5.3,32.4,0.9,33,17c4.4,1.4,7.2,7,5,12c3.7-2.1,2.6,1.4,7,1c1.7-2.6,1.6-7.1,5-8c4,4.1,13.5,12.7,7.1,18.1l81.7,0l1.2-3.1
				c0.8-2.4,0.6-5.1,0.8-6.6c4.8-0.8,4.8,5,10.2,3.6C227.9,350.6,220.9,348.9,223.5,341.6z M69.6,336.5c-0.1,0.1-0.2,0.4-0.3,0.8
				c0,0.2-0.1,0.4-0.1,0.6c-2.4,2.1-8.1,1.2-11.7-0.2c-1-6.9,4.5-11.5,9-12c-3.4-0.4-1.1-5.3,0-7c5.3,1.4,6.2,7.1,8,12
				C73.5,333.2,70.7,334,69.6,336.5z M75.5,308.6c-3.5-3.2,4.6-3.4,5-6C83.9,305.8,75.7,305.7,75.5,308.6z M77.5,315.6
				c-2.8-4.5,2.3-9.7,7-10C82.6,309.4,77.5,310,77.5,315.6z M81.5,316.6c-2.4-2.8,2.1-7.2,5-8C88.5,311,81.2,312.6,81.5,316.6z
				 M96.5,299.6c-2.4,0.7-3.7,0.5-7,2C88.7,298.4,105.6,297.1,96.5,299.6z M120.5,353.6c-1.7,1.3-5.8-3.5-5-8c1.9-0.1,3.3-0.7,4-2
				C124.9,347.1,115.3,349.9,120.5,353.6z M120.5,336.6c3.5,1.8,4.9,5.8,6,10C120.7,347.1,121.7,340.8,120.5,336.6z M117.5,301.6
				c3.2-1.2,0.8,3.2,4,2c1.9,0.4,1.5-4.6-1-3c4.1-2.9,8.1-2.6,14-2c0.1,2.7-1.7,2,0,4c2.1,0.5,1.9-1.4,2-3c3.8,2.2,9.8,5.2,8,10
				c1,0,2,0,3,0c0.1-0.3,0-0.5-0.1-0.6c-0.3-0.1-0.6-0.2-0.9-0.4c0.4,0,0.8,0.1,0.9,0.4c10.6,4.4,16.2,21.7,30.1,25.6
				c-0.7,1.6-6.1,5.4,0,5c-0.7,3.7-3-0.4-5,2c-0.7,2.7,2.1,1.9,3,3c-3.4,2.7-9-1-10-4c-1.8,1.7-7.3,1.5-7-2c0.9,0.8,2.3,1.1,4,1
				c0.3-1.6-0.9-1.7-1-3c-6.2,4.4-13.6-1.6-19-4c-0.3-1.6,0.9-1.7,1-3c-0.8-0.9-3.2-0.9-7-1c1.7-4.2-6.8-7.4-9-8
				C129.6,312.7,115.5,309.3,117.5,301.6z M168.5,327.6c-1.4-10.3-17.5-14.4-19.7-22.6c-0.6-2.1-0.2-4.5,1.7-7.4
				c13-0.1,29.9-0.1,39,1c3.7,12.6,5.4,21,6,35C186.4,331.7,175.8,331.4,168.5,327.6z M197.5,352.6c-16.2,4.3-38,2.2-51-2
				c0.9-3,1.2-7.4,2-11c11.4,1.3,16.7,8.6,26,12C181.9,347,190.8,350.9,197.5,352.6z M133.5,348.6c-1.7,0-3.3,0-5,0
				c0-2.4-1.7-2.9-1-6c1.7-0.5,3.4-1.3,4.7-2.4c0.2,0.1,0.3,0.2,0.5,0.3c0.3,0.2,0.6,0.3,0.9,0.4
				C134.3,343.2,135.4,346.7,133.5,348.6z M141.5,358.6c-6.7-2.7-8.8-18.2,2-18C141.7,345.5,143.4,353.9,141.5,358.6z M133.9,340.5
				c-0.2-0.2-0.5-0.4-0.9-0.6c-0.1-0.1-0.2-0.1-0.3-0.2c1.8-1.8,2.4-4.1-0.2-7.2c3.8-3.4,6.5,2.8,11,2
				C141.8,338,138,339.4,133.9,340.5z M204.5,362.6c-26.2,1.1-38.1,1.3-58.6-0.1c0.1-0.5,0.8-1.8,0.6-2.9c8.7,0.3,37.2,1.6,55.2,0.3
				c0.4-1.5,1-4.4,1.6-6.1c0,0,1.8,0.3,2.9,0.4C206.2,356.3,205.3,360,204.5,362.6z M206.5,338.6c-1.4-0.9-1.6-1.6-3.1-2.6
				c0-4.7-0.5-10.2-0.9-13.4c-1.7-11.1-5.4-19.7-7-30c-14-1.3-40.2,1.2-47.1,0.2c0-1,0.3-2.5,0.1-3.2c12.7-0.1,35.1-0.2,49-1
				C203.1,302.2,207.1,322.2,206.5,338.6z"/>
			<circle style="&st0;" cx="61.8" cy="336.4" r="1.1"/>
		</g>
		<g>
			<rect x="28.3" y="533.7" width="3.5" height="7.5"/>
			<rect x="28.3" y="560.2" width="3.5" height="7.5"/>
			<rect x="28.3" y="573.4" width="3.5" height="7.5"/>
			<rect x="28.3" y="586.7" width="3.5" height="7.5"/>
			<rect x="28.3" y="546.9" width="3.5" height="7.5"/>
			<rect x="28.3" y="520.5" width="3.5" height="7.5"/>
			<rect x="42.9" y="619.3" width="7.5" height="3.5"/>
			<rect x="43" y="365.6" width="7.5" height="3.5"/>
			<polygon points="28.3,289.6 31.8,289.6 31.8,285.6 37.2,285.6 37.2,282.1 28.3,282.1 			"/>
			<polygon points="31.8,361.6 28.3,361.6 28.3,369.1 37.2,369.1 37.2,365.6 31.8,365.6 			"/>
			<rect x="43" y="282.1" width="7.5" height="3.5"/>
			<polygon points="31.8,613.1 28.3,613.1 28.3,622.8 37.1,622.8 37.1,619.3 31.8,619.3 			"/>
			<rect x="28.3" y="599.9" width="3.5" height="7.5"/>
			<rect x="28.3" y="401.3" width="3.5" height="7.5"/>
			<rect x="28.3" y="427.8" width="3.5" height="7.5"/>
			<rect x="28.3" y="388.1" width="3.5" height="7.5"/>
			<rect x="28.3" y="507.2" width="3.5" height="7.5"/>
			<rect x="28.3" y="374.8" width="3.5" height="7.5"/>
			<rect x="28.3" y="348.3" width="3.5" height="7.5"/>
			<rect x="28.3" y="414.5" width="3.5" height="7.5"/>
			<rect x="28.3" y="494" width="3.5" height="7.5"/>
			<rect x="28.3" y="480.7" width="3.5" height="7.5"/>
			<rect x="28.3" y="335.1" width="3.5" height="7.5"/>
			<rect x="28.3" y="441" width="3.5" height="7.5"/>
			<rect x="161.8" y="282.1" width="7.5" height="3.5"/>
			<rect x="28.3" y="454.3" width="3.5" height="7.5"/>
			<rect x="122.2" y="365.6" width="7.5" height="3.5"/>
			<rect x="122.2" y="282.1" width="7.5" height="3.5"/>
			<rect x="135.3" y="619.3" width="7.5" height="3.5"/>
			<rect x="122.1" y="619.3" width="7.5" height="3.5"/>
			<rect x="135.4" y="365.6" width="7.5" height="3.5"/>
			<rect x="56.1" y="619.3" width="7.5" height="3.5"/>
			<rect x="161.7" y="619.3" width="7.5" height="3.5"/>
			<rect x="109" y="365.6" width="7.5" height="3.5"/>
			<rect x="135.4" y="282.1" width="7.5" height="3.5"/>
			<rect x="148.6" y="282.1" width="7.5" height="3.5"/>
			<rect x="161.8" y="365.6" width="7.5" height="3.5"/>
			<rect x="148.5" y="619.3" width="7.5" height="3.5"/>
			<rect x="148.6" y="365.6" width="7.5" height="3.5"/>
			<rect x="109" y="282.1" width="7.5" height="3.5"/>
			<rect x="69.4" y="365.6" width="7.5" height="3.5"/>
			<rect x="69.3" y="619.3" width="7.5" height="3.5"/>
			<rect x="108.9" y="619.3" width="7.5" height="3.5"/>
			<rect x="69.4" y="282.1" width="7.5" height="3.5"/>
			<rect x="56.2" y="365.6" width="7.5" height="3.5"/>
			<rect x="56.2" y="282.1" width="7.5" height="3.5"/>
			<rect x="82.5" y="619.3" width="7.5" height="3.5"/>
			<rect x="95.8" y="365.6" width="7.5" height="3.5"/>
			<rect x="82.6" y="365.6" width="7.5" height="3.5"/>
			<rect x="95.8" y="282.1" width="7.5" height="3.5"/>
			<rect x="82.6" y="282.1" width="7.5" height="3.5"/>
			<rect x="95.7" y="619.3" width="7.5" height="3.5"/>
			<rect x="28.3" y="467.5" width="3.5" height="7.5"/>
			<rect x="227.8" y="28.3" width="7.5" height="3.5"/>
			<rect x="214.6" y="28.3" width="7.5" height="3.5"/>
			<rect x="201.4" y="28.3" width="7.5" height="3.5"/>
			<rect x="108.9" y="28.3" width="7.5" height="3.5"/>
			<rect x="188.1" y="28.3" width="7.5" height="3.5"/>
			<rect x="241" y="28.3" width="7.5" height="3.5"/>
			<rect x="267.4" y="28.3" width="7.5" height="3.5"/>
			<rect x="174.9" y="28.3" width="7.5" height="3.5"/>
			<rect x="122.1" y="28.3" width="7.5" height="3.5"/>
			<rect x="135.3" y="28.3" width="7.5" height="3.5"/>
			<rect x="148.5" y="28.3" width="7.5" height="3.5"/>
			<rect x="161.7" y="28.3" width="7.5" height="3.5"/>
			<rect x="254.2" y="28.3" width="7.5" height="3.5"/>
			<rect x="386.2" y="28.3" width="7.5" height="3.5"/>
			<rect x="373" y="28.3" width="7.5" height="3.5"/>
			<rect x="399.5" y="28.3" width="7.5" height="3.5"/>
			<rect x="412.7" y="28.3" width="7.5" height="3.5"/>
			<rect x="425.9" y="28.3" width="7.5" height="3.5"/>
			<rect x="359.8" y="28.3" width="7.5" height="3.5"/>
			<rect x="28.3" y="321.9" width="3.5" height="7.5"/>
			<rect x="293.8" y="28.3" width="7.5" height="3.5"/>
			<rect x="280.6" y="28.3" width="7.5" height="3.5"/>
			<rect x="333.4" y="28.3" width="7.5" height="3.5"/>
			<rect x="320.2" y="28.3" width="7.5" height="3.5"/>
			<rect x="346.6" y="28.3" width="7.5" height="3.5"/>
			<rect x="307" y="28.3" width="7.5" height="3.5"/>
			<rect x="28.3" y="189.4" width="3.5" height="7.5"/>
			<rect x="28.3" y="202.7" width="3.5" height="7.5"/>
			<rect x="28.3" y="215.9" width="3.5" height="7.5"/>
			<rect x="28.3" y="136.5" width="3.5" height="7.5"/>
			<rect x="28.3" y="229.2" width="3.5" height="7.5"/>
			<rect x="28.3" y="163" width="3.5" height="7.5"/>
			<rect x="28.3" y="149.7" width="3.5" height="7.5"/>
			<rect x="28.3" y="295.4" width="3.5" height="7.5"/>
			<rect x="28.3" y="308.6" width="3.5" height="7.5"/>
			<rect x="28.3" y="255.6" width="3.5" height="7.5"/>
			<rect x="95.7" y="28.3" width="7.5" height="3.5"/>
			<rect x="28.3" y="268.9" width="3.5" height="7.5"/>
			<rect x="28.3" y="242.4" width="3.5" height="7.5"/>
			<rect x="28.3" y="43.8" width="3.5" height="7.5"/>
			<rect x="42.9" y="28.3" width="7.5" height="3.5"/>
			<polygon points="31.8,31.8 37.1,31.8 37.1,28.3 28.3,28.3 28.3,38.1 31.8,38.1 			"/>
			<rect x="56.1" y="28.3" width="7.5" height="3.5"/>
			<rect x="69.3" y="28.3" width="7.5" height="3.5"/>
			<rect x="82.5" y="28.3" width="7.5" height="3.5"/>
			<rect x="28.3" y="83.5" width="3.5" height="7.5"/>
			<rect x="28.3" y="96.8" width="3.5" height="7.5"/>
			<rect x="28.3" y="110" width="3.5" height="7.5"/>
			<rect x="28.3" y="70.3" width="3.5" height="7.5"/>
			<rect x="28.3" y="123.2" width="3.5" height="7.5"/>
			<rect x="28.3" y="57" width="3.5" height="7.5"/>
			<rect x="28.3" y="176.2" width="3.5" height="7.5"/>
			<polygon points="444.3,365.6 439.2,365.6 439.2,369.1 447.8,369.1 447.8,361.6 444.3,361.6 			"/>
			<rect x="444.3" y="494" width="3.5" height="7.5"/>
			<rect x="444.3" y="467.5" width="3.5" height="7.5"/>
			<rect x="444.3" y="533.7" width="3.5" height="7.5"/>
			<rect x="444.3" y="520.5" width="3.5" height="7.5"/>
			<rect x="444.3" y="454.3" width="3.5" height="7.5"/>
			<rect x="444.3" y="507.2" width="3.5" height="7.5"/>
			<rect x="444.3" y="401.3" width="3.5" height="7.5"/>
			<rect x="444.3" y="441" width="3.5" height="7.5"/>
			<rect x="444.3" y="374.8" width="3.5" height="7.5"/>
			<rect x="444.3" y="388.1" width="3.5" height="7.5"/>
			<rect x="444.3" y="414.5" width="3.5" height="7.5"/>
			<rect x="444.3" y="427.8" width="3.5" height="7.5"/>
			<rect x="444.3" y="480.7" width="3.5" height="7.5"/>
			<rect x="425.9" y="619.3" width="7.5" height="3.5"/>
			<rect x="426" y="365.6" width="7.5" height="3.5"/>
			<rect x="412.8" y="282.1" width="7.5" height="3.5"/>
			<rect x="412.8" y="365.6" width="7.5" height="3.5"/>
			<rect x="412.7" y="619.3" width="7.5" height="3.5"/>
			<rect x="426" y="282.1" width="7.5" height="3.5"/>
			<rect x="444.3" y="573.4" width="3.5" height="7.5"/>
			<polygon points="444.3,619.3 439.1,619.3 439.1,622.8 447.8,622.8 447.8,613.1 444.3,613.1 			"/>
			<rect x="444.3" y="560.2" width="3.5" height="7.5"/>
			<rect x="444.3" y="546.9" width="3.5" height="7.5"/>
			<rect x="444.3" y="586.7" width="3.5" height="7.5"/>
			<rect x="444.3" y="599.9" width="3.5" height="7.5"/>
			<rect x="444.3" y="295.4" width="3.5" height="7.5"/>
			<rect x="444.3" y="136.5" width="3.5" height="7.5"/>
			<rect x="444.3" y="96.8" width="3.5" height="7.5"/>
			<rect x="444.3" y="110" width="3.5" height="7.5"/>
			<rect x="444.3" y="123.2" width="3.5" height="7.5"/>
			<rect x="444.3" y="149.7" width="3.5" height="7.5"/>
			<rect x="444.3" y="163" width="3.5" height="7.5"/>
			<polygon points="447.8,28.3 439.1,28.3 439.1,31.8 444.3,31.8 444.3,38.1 447.8,38.1 			"/>
			<rect x="444.3" y="176.2" width="3.5" height="7.5"/>
			<rect x="444.3" y="43.8" width="3.5" height="7.5"/>
			<rect x="444.3" y="57" width="3.5" height="7.5"/>
			<rect x="444.3" y="83.5" width="3.5" height="7.5"/>
			<rect x="444.3" y="70.3" width="3.5" height="7.5"/>
			<polygon points="439.2,285.6 444.3,285.6 444.3,289.6 447.8,289.6 447.8,282.1 439.2,282.1 			"/>
			<rect x="444.3" y="308.6" width="3.5" height="7.5"/>
			<rect x="444.3" y="268.9" width="3.5" height="7.5"/>
			<rect x="444.3" y="348.3" width="3.5" height="7.5"/>
			<rect x="399.5" y="282.1" width="7.5" height="3.5"/>
			<rect x="444.3" y="189.4" width="3.5" height="7.5"/>
			<rect x="444.3" y="335.1" width="3.5" height="7.5"/>
			<rect x="444.3" y="321.9" width="3.5" height="7.5"/>
			<rect x="444.3" y="202.7" width="3.5" height="7.5"/>
			<rect x="444.3" y="215.9" width="3.5" height="7.5"/>
			<rect x="444.3" y="255.6" width="3.5" height="7.5"/>
			<rect x="444.3" y="242.4" width="3.5" height="7.5"/>
			<rect x="444.3" y="229.2" width="3.5" height="7.5"/>
			<rect x="267.4" y="619.3" width="7.5" height="3.5"/>
			<rect x="241.1" y="282.1" width="7.5" height="3.5"/>
			<rect x="241.1" y="365.6" width="7.5" height="3.5"/>
			<rect x="254.3" y="365.6" width="7.5" height="3.5"/>
			<rect x="227.9" y="365.6" width="7.5" height="3.5"/>
			<rect x="227.9" y="282.1" width="7.5" height="3.5"/>
			<rect x="241" y="619.3" width="7.5" height="3.5"/>
			<rect x="254.2" y="619.3" width="7.5" height="3.5"/>
			<rect x="280.6" y="619.3" width="7.5" height="3.5"/>
			<rect x="280.7" y="365.6" width="7.5" height="3.5"/>
			<rect x="267.5" y="282.1" width="7.5" height="3.5"/>
			<rect x="267.5" y="365.6" width="7.5" height="3.5"/>
			<rect x="254.3" y="282.1" width="7.5" height="3.5"/>
			<rect x="174.9" y="619.3" width="7.5" height="3.5"/>
			<rect x="201.4" y="619.3" width="7.5" height="3.5"/>
			<rect x="188.2" y="365.6" width="7.5" height="3.5"/>
			<rect x="188.2" y="282.1" width="7.5" height="3.5"/>
			<rect x="280.7" y="282.1" width="7.5" height="3.5"/>
			<rect x="188.1" y="619.3" width="7.5" height="3.5"/>
			<rect x="175" y="365.6" width="7.5" height="3.5"/>
			<rect x="227.8" y="619.3" width="7.5" height="3.5"/>
			<rect x="175" y="282.1" width="7.5" height="3.5"/>
			<rect x="214.6" y="282.1" width="7.5" height="3.5"/>
			<rect x="214.6" y="365.6" width="7.5" height="3.5"/>
			<rect x="201.4" y="282.1" width="7.5" height="3.5"/>
			<rect x="214.6" y="619.3" width="7.5" height="3.5"/>
			<rect x="201.4" y="365.6" width="7.5" height="3.5"/>
			<rect x="333.4" y="619.3" width="7.5" height="3.5"/>
			<rect x="359.9" y="365.6" width="7.5" height="3.5"/>
			<rect x="359.9" y="282.1" width="7.5" height="3.5"/>
			<rect x="373" y="619.3" width="7.5" height="3.5"/>
			<rect x="359.8" y="619.3" width="7.5" height="3.5"/>
			<rect x="346.7" y="365.6" width="7.5" height="3.5"/>
			<rect x="346.7" y="282.1" width="7.5" height="3.5"/>
			<rect x="373.1" y="365.6" width="7.5" height="3.5"/>
			<rect x="399.5" y="619.3" width="7.5" height="3.5"/>
			<rect x="293.8" y="619.3" width="7.5" height="3.5"/>
			<rect x="373.1" y="282.1" width="7.5" height="3.5"/>
			<rect x="386.2" y="619.3" width="7.5" height="3.5"/>
			<rect x="386.3" y="365.6" width="7.5" height="3.5"/>
			<rect x="386.3" y="282.1" width="7.5" height="3.5"/>
			<rect x="346.6" y="619.3" width="7.5" height="3.5"/>
			<rect x="307.1" y="365.6" width="7.5" height="3.5"/>
			<rect x="307.1" y="282.1" width="7.5" height="3.5"/>
			<rect x="293.9" y="282.1" width="7.5" height="3.5"/>
			<rect x="293.9" y="365.6" width="7.5" height="3.5"/>
			<rect x="320.2" y="619.3" width="7.5" height="3.5"/>
			<rect x="307" y="619.3" width="7.5" height="3.5"/>
			<rect x="333.5" y="365.6" width="7.5" height="3.5"/>
			<rect x="320.3" y="365.6" width="7.5" height="3.5"/>
			<rect x="333.5" y="282.1" width="7.5" height="3.5"/>
			<rect x="399.5" y="365.6" width="7.5" height="3.5"/>
			<rect x="320.3" y="282.1" width="7.5" height="3.5"/>
		</g>
	</g>
</g>
</svg>
