<?xml version="1.0" encoding="UTF-8" standalone="no"?>
<svg
   xmlns:dc="http://purl.org/dc/elements/1.1/"
   xmlns:cc="http://creativecommons.org/ns#"
   xmlns:rdf="http://www.w3.org/1999/02/22-rdf-syntax-ns#"
   xmlns:svg="http://www.w3.org/2000/svg"
   xmlns="http://www.w3.org/2000/svg"
   xmlns:sodipodi="http://sodipodi.sourceforge.net/DTD/sodipodi-0.dtd"
   xmlns:inkscape="http://www.inkscape.org/namespaces/inkscape"
   width="12pt"
   height="12pt"
   viewBox="0 0 12 12"
   version="1.1"
   id="svg23"
   sodipodi:docname="Vesta_symbol_(old_elaborate_2).svg"
   inkscape:version="0.92.5 (2060ec1f9f, 2020-04-08)">
  <metadata
     id="metadata27">
    <rdf:RDF>
      <cc:Work
         rdf:about="">
        <dc:format>image/svg+xml</dc:format>
        <dc:type
           rdf:resource="http://purl.org/dc/dcmitype/StillImage" />
      </cc:Work>
    </rdf:RDF>
  </metadata>
  <sodipodi:namedview
     pagecolor="#ffffff"
     bordercolor="#666666"
     borderopacity="1"
     objecttolerance="10"
     gridtolerance="10"
     guidetolerance="10"
     inkscape:pageopacity="0"
     inkscape:pageshadow="2"
     inkscape:window-width="1920"
     inkscape:window-height="1015"
     id="namedview25"
     showgrid="false"
     inkscape:zoom="20.85965"
     inkscape:cx="5.9745586"
     inkscape:cy="7.0412111"
     inkscape:window-x="0"
     inkscape:window-y="0"
     inkscape:window-maximized="1"
     inkscape:current-layer="svg23" />
  <defs
     id="defs8">
    <clipPath
       id="clip1">
      <path
         d="M 1 6 L 11 6 L 11 11 L 1 11 Z M 1 6 "
         id="path2" />
    </clipPath>
    <clipPath
       id="clip2">
      <path
         d="M 11 6 C 11 8.761719 8.761719 11 6 11 C 3.238281 11 1 8.761719 1 6 L 4.332031 6 C 4.332031 6.921875 5.078125 7.667969 6 7.667969 C 6.921875 7.667969 7.667969 6.921875 7.667969 6 "
         id="path5" />
    </clipPath>
  </defs>
  <path
     style="fill:none;stroke:#000000;stroke-width:0.60000002;stroke-linecap:round;stroke-linejoin:round;stroke-miterlimit:4;stroke-dasharray:none;stroke-opacity:1"
     d="m 7.5403355,3.2620608 c 0,0 0.494652,-0.380581 0,-1.1298618 -0.494653,-0.7492809 0,-1.1298618 0,-1.1298618"
     id="path881-5"
     inkscape:connector-curvature="0"
     sodipodi:nodetypes="czc" />
  <path
     inkscape:connector-curvature="0"
     d="M 8.542275,4.74975 V 8.9586827 L 9.3897,11.00025 H 2.6103 L 3.457725,8.9586827 V 4.74975 m 5.08455,4.2089327 H 5.662379 4.814954 3.457725 M 2.6103,4.74975 H 4.30515 L 6,7.25025 7.69485,4.74975 H 9.3897"
     style="opacity:1;fill:none;fill-opacity:0.125;fill-rule:nonzero;stroke:#000000;stroke-width:0.60000002;stroke-linecap:round;stroke-linejoin:round;stroke-miterlimit:4;stroke-dasharray:none;stroke-dashoffset:0;stroke-opacity:1"
     id="path3694"
     sodipodi:nodetypes="ccccccccccccccc" />
  <path
     inkscape:connector-curvature="0"
     d="M 4.8700943,4.0197831 6,5.7146415 7.1299056,4.0197831"
     style="opacity:1;fill:none;fill-opacity:0.125;fill-rule:nonzero;stroke:#000000;stroke-width:0.60000002;stroke-linecap:round;stroke-linejoin:round;stroke-miterlimit:4;stroke-dasharray:none;stroke-dashoffset:0;stroke-opacity:1"
     id="path3694-2"
     sodipodi:nodetypes="ccc" />
  <path
     style="fill:none;stroke:#000000;stroke-width:0.60000002;stroke-linecap:round;stroke-linejoin:round;stroke-miterlimit:4;stroke-dasharray:none;stroke-opacity:1"
     d="m 6.0000002,3.2620607 c 0,0 0.4946519,-0.3805809 0,-1.1298618 -0.494653,-0.7492808 0,-1.1298617 0,-1.1298617"
     id="path881-5-9"
     inkscape:connector-curvature="0"
     sodipodi:nodetypes="czc" />
  <path
     style="fill:none;stroke:#000000;stroke-width:0.60000002;stroke-linecap:round;stroke-linejoin:round;stroke-miterlimit:4;stroke-dasharray:none;stroke-opacity:1"
     d="m 4.4596644,3.2620607 c 0,0 -0.4946519,-0.3805809 0,-1.1298618 0.494653,-0.7492808 0,-1.1298617 0,-1.1298617"
     id="path881-5-1"
     inkscape:connector-curvature="0"
     sodipodi:nodetypes="czc" />
</svg>
