<?xml version="1.0" encoding="utf-8"?>
<svg version="1.1" width="930px" height="284px" xmlns="http://www.w3.org/2000/svg">
  <g fill="none" stroke="#00f">
    <path d="m24 275v-264h132v264h132v-264"/>
    <path d="m337 275v-66h33v66h33v-165h-33v66h-33v-165h33v66h33v-66h33v66h33v-66h33v165h-33v-66h-33v165h33v-66h33v66h33v-66h33v66h33v-165h-33v66h-33v-165h33v66h33v-33-33"/>
    <path d="m647 275v-20.2h10.1v20.2h10.1v-50.5h-10.1v20.2h-10.1v-50.5h10.1v20.2h10.1v-20.2h10.1v20.2h10.1v-20.2h10.1v50.5h-10.1v-20.2h-10.1v50.5h10.1v-20.2h10.1v20.2h10.1v-20.2h10.1v20.2h10.1v-50.5h-10.1v20.2h-10.1v-50.5h10.1v20.2h10.1v-50.5h-10.1v20.2h-10.1v-50.5h10.1v20.2h10.1v-50.5h-10.1v20.2h-10.1v-20.2h-10.1v20.2h-10.1v-20.2h-10.1v50.5h10.1v-20.2h10.1v50.5h-10.1v-20.2h-10.1v20.2h-10.1v-20.2h-10.1v20.2h-10.1v-50.5h10.1v20.2h10.1v-50.5h-10.1v20.2h-10.1v-50.5h10.1v20.2h10.1v-50.5h-10.1v20.2h-10.1v-50.5h10.1v20.2h10.1v-20.2h10.1v20.2h10.1v-20.2h10.1v50.5h-10.1v-20.2h-10.1v50.5h10.1v-20.2h10.1v20.2h10.1v-20.2h10.1v20.2h10.1v-50.5h-10.1v20.2h-10.1v-50.5h10.1v20.2h10.1v-20.2h10.1v20.2h10.1v-20.2h10.1v50.5h-10.1v-20.2h-10.1v50.5h10.1v-20.2h10.1v20.2h10.1v-20.2h10.1v20.2h10.1v-50.5h-10.1v20.2h-10.1v-50.5h10.1v20.2h10.1v-20.2h10.1v20.2h10.1v-20.2h10.1v50.5h-10.1v-20.2h-10.1v50.5h10.1v-20.2h10.1v50.5h-10.1v-20.2h-10.1v50.5h10.1v-20.2h10.1v50.5h-10.1v-20.2h-10.1v20.2h-10.1v-20.2h-10.1v20.2h-10.1v-50.5h10.1v20.2h10.1v-50.5h-10.1v20.2h-10.1v-20.2h-10.1v20.2h-10.1v-20.2h-10.1v50.5h10.1v-20.2h10.1v50.5h-10.1v-20.2h-10.1v50.5h10.1v-20.2h10.1v50.5h-10.1v-20.2h-10.1v50.5h10.1v-20.2h10.1v20.2h10.1v-20.2h10.1v20.2h10.1v-50.5h-10.1v20.2h-10.1v-50.5h10.1v20.2h10.1v-20.2h10.1v20.2h10.1v-20.2h10.1v50.5h-10.1v-20.2h-10.1v50.5h10.1v-20.2h10.1v20.2h10.1v-20.2h10.1v20.2h10.1v-50.5h-10.1v20.2h-10.1v-50.5h10.1v20.2h10.1v-20.2h10.1v20.2h10.1v-20.2h10.1v50.5h-10.1v-20.2h-10.1v50.5h10.1v-20.2h10.1v20.2h10.1v-20.2h10.1v20.2h10.1v-50.5h-10.1v20.2h-10.1v-50.5h10.1v20.2h10.1v-50.5h-10.1v20.2h-10.1v-50.5h10.1v20.2h10.1v-50.5h-10.1v20.2h-10.1v-20.2h-10.1v20.2h-10.1v-20.2h-10.1v50.5h10.1v-20.2h10.1v50.5h-10.1v-20.2h-10.1v20.2h-10.1v-20.2h-10.1v20.2h-10.1v-50.5h10.1v20.2h10.1v-50.5h-10.1v20.2h-10.1v-50.5h10.1v20.2h10.1v-50.5h-10.1v20.2h-10.1v-50.5h10.1v20.2h10.1v-20.2h10.1v20.2h10.1v-20.2h10.1v50.5h-10.1v-20.2h-10.1v50.5h10.1v-20.2h10.1v20.2h10.1v-20.2h10.1v20.2h10.1v-50.5h-10.1v20.2h-10.1v-50.5h10.1v20.2h10.1v-20.2"/>
  </g>
</svg>
