
<?xml version="1.0" standalone="no"?>
<!DOCTYPE svg PUBLIC "-//W3C//DTD SVG 20010904//EN"
 "http://www.w3.org/TR/2001/REC-SVG-20010904/DTD/svg10.dtd">
<svg version="1.0" xmlns="http://www.w3.org/2000/svg"
 width="904.000000pt" height="1280.000000pt" viewBox="0 0 904.000000 1280.000000"
 preserveAspectRatio="xMidYMid meet">
<metadata>
Created by potrace 1.15, written by Peter Selinger 2001-2017
</metadata>
<g transform="translate(0.000000,1280.000000) scale(0.100000,-0.100000)"
fill="#000000" stroke="none">
<path d="M4195 12789 c-1934 -137 -3576 -1512 -4055 -3394 -211 -830 -182
-1752 80 -2535 184 -551 492 -1060 964 -1595 111 -126 166 -183 547 -580 456
-475 581 -614 754 -844 188 -249 346 -540 429 -789 74 -223 109 -411 122 -647
4 -71 11 -136 17 -142 14 -19 2920 -19 2934 0 6 6 13 71 17 142 34 638 287
1173 856 1805 62 69 264 283 449 475 408 423 460 480 619 665 433 506 718 989
892 1509 261 782 290 1710 80 2536 -242 954 -791 1802 -1567 2422 -881 703
-2005 1052 -3138 972z m270 -1404 l0 -300 -125 -7 c-577 -31 -1146 -250 -1600
-616 -551 -444 -928 -1119 -1014 -1819 -8 -65 -18 -164 -22 -220 l-6 -103
-301 0 -300 0 7 142 c32 643 253 1276 627 1800 544 760 1381 1266 2302 1393
126 17 326 33 392 31 l40 -1 0 -300z"/>
<path d="M3247 2046 c-135 -37 -222 -172 -202 -311 16 -105 110 -202 218 -225
36 -7 426 -10 1287 -8 l1235 3 57 28 c102 50 152 131 152 247 0 116 -50 197
-152 247 l-57 28 -1245 2 c-999 1 -1255 -1 -1293 -11z"/>
<path d="M3275 1300 c-65 -13 -92 -27 -139 -70 -61 -57 -89 -119 -89 -200 0
-112 54 -199 151 -247 l57 -28 1265 0 1265 0 57 28 c97 48 151 135 151 247 0
83 -29 145 -93 203 -85 77 14 71 -1355 73 -676 1 -1248 -2 -1270 -6z"/>
<path d="M3810 551 c-65 -11 -112 -34 -155 -76 -114 -115 -106 -304 17 -409
78 -67 63 -66 849 -66 787 0 769 -1 849 68 62 52 94 122 94 207 1 116 -58 210
-163 258 -46 22 -51 22 -746 23 -385 1 -720 -1 -745 -5z"/>
</g>
</svg>